# xmcd CD database file
#
# Track frame offsets:
#	150
#	29636
#	71455
#	138146
#	176376
#	203056
#	284282
#
# Disc length: 4094 seconds
#
# Revision: 0
# Processed by: cddbd v1.5.2PL0 Copyright (c) Steve Scherf et al.
# Submitted via: jetAudio 7
#
DISCID=5f0ffc07
DTITLE=음악가 없음 - 앨범 없음
DYEAR=1900
DGENRE=장르 없음
TTITLE0=트랙 1
TTITLE1=트랙 2
TTITLE2=트랙 3
TTITLE3=트랙 4
TTITLE4=트랙 5
TTITLE5=트랙 6
TTITLE6=트랙 7
EXTD=
EXTT0=
EXTT1=
EXTT2=
EXTT3=
EXTT4=
EXTT5=
EXTT6=
PLAYORDER=
